<svg width="382" height="198" viewBox="0 0 382 198" fill="none" xmlns="http://www.w3.org/2000/svg">
<path fill-rule="evenodd" clip-rule="evenodd" d="M337.534 103.371C337.855 104.033 339.078 104.233 339.88 104.373C346.416 105.536 374.745 106.138 377.472 103.792C379.858 101.787 378.534 69.0273 376.209 67.7041C373.201 65.9197 340.401 65.5789 338.116 67.4033C336.452 68.7867 335.409 98.7397 337.534 103.371ZM338.617 67.8244C340.442 66.3006 372.48 67.4434 375.367 68.8468C376.91 72.9769 377.913 98.9202 376.409 102.609C373.963 104.293 343.99 104.233 338.757 102.609C336.712 97.6972 337.474 68.7867 338.617 67.8244ZM257.8 64.3158C257.005 65.6759 255.931 66.8525 254.649 67.7682C253.368 68.6839 251.906 69.3179 250.362 69.6288C250.315 69.6166 250.265 69.6155 250.217 69.6254C250.169 69.6354 250.124 69.6561 250.086 69.6861C250.047 69.7161 250.016 69.7545 249.994 69.7984C249.973 69.8424 249.962 69.8906 249.962 69.9395C249.962 69.9884 249.973 70.0367 249.994 70.0806C250.016 70.1245 250.047 70.1629 250.086 70.1929C250.124 70.2229 250.169 70.2437 250.217 70.2536C250.265 70.2635 250.315 70.2624 250.362 70.2503C253.891 71.1725 258.482 67.9647 258.482 64.4361C258.498 64.3457 258.477 64.2527 258.424 64.1775C258.372 64.1023 258.291 64.0511 258.201 64.0351C258.111 64.0192 258.018 64.0398 257.942 64.0924C257.867 64.1451 257.816 64.2254 257.8 64.3158ZM241.42 46.3721V48.3769C241.42 48.6428 241.526 48.8978 241.714 49.0858C241.902 49.2738 242.157 49.3794 242.423 49.3794C242.687 49.3743 242.939 49.267 243.126 49.0801C243.313 48.8932 243.42 48.6412 243.425 48.3769V46.3721C243.425 46.1062 243.319 45.8512 243.131 45.6632C242.943 45.4752 242.688 45.3696 242.423 45.3696C242.157 45.3696 241.902 45.4752 241.714 45.6632C241.526 45.8512 241.42 46.1062 241.42 46.3721ZM261.409 48.2767C261.409 48.5426 261.514 48.7975 261.702 48.9855C261.89 49.1735 262.145 49.2791 262.411 49.2791C262.677 49.2791 262.932 49.1735 263.12 48.9855C263.308 48.7975 263.414 48.5426 263.414 48.2767V45.7906C263.414 45.5248 263.308 45.2698 263.12 45.0818C262.932 44.8938 262.677 44.7882 262.411 44.7882C262.145 44.7882 261.89 44.8938 261.702 45.0818C261.514 45.2698 261.409 45.5248 261.409 45.7906C261.329 46.6527 261.409 47.6552 261.409 48.2767Z" fill="white"/>
<path fill-rule="evenodd" clip-rule="evenodd" d="M377.652 193.31C377.521 193.086 377.335 192.9 377.111 192.769C375.387 191.927 366.004 192.348 364.059 192.428C364.4 139.84 336.693 107.04 296.475 97.6368C289.097 95.9126 289.077 95.7923 288.876 95.9126L287.513 92.1635C291.362 92.0432 294.51 89.0759 298.038 89.6774C300.705 90.1185 302.048 92.4843 304.675 93.4867C309.125 95.1708 317.045 92.5845 319.471 88.3542C320.714 86.1488 319.611 83.8632 320.393 82.3395C321.796 81.1165 325.786 79.1517 326.929 77.7283C329.275 74.8011 329.375 68.2451 328.312 64.6965C326.394 60.6808 323.781 57.036 320.593 53.9303C317.126 50.5892 314.052 46.8626 311.431 42.8232C308.203 36.3875 308.083 27.4858 305.416 20.7694C302.477 14.7051 297.928 9.56572 292.264 5.91318C286.733 2.00619 280.064 0.0394057 273.298 0.319544C266.983 0.720521 264.517 3.40707 261.569 4.32932C258.622 5.25157 258.001 4.32932 253.209 6.43445C251.306 7.59368 249.612 9.06435 248.197 10.7851C247.595 11.4266 247.636 11.4667 246.613 11.5068C245.512 11.424 244.406 11.424 243.305 11.5068C241.428 11.9234 239.632 12.6483 237.992 13.652C226.825 20.3484 229.832 33.8212 225.622 43.7254C222.755 50.4618 214.775 56.9376 214.094 63.9747C213.852 67.2104 214.548 70.4472 216.099 73.2975C220.97 81.8583 227.968 75.142 231.596 80.3747C232.739 82.0187 233.601 83.6226 235.726 83.9434C238.433 84.3043 242.122 82.1591 244.327 80.5752C244.791 81.1155 245.316 81.5999 245.891 82.0187C247.846 83.3363 249.944 84.426 252.147 85.2666L247.054 92.384C237.511 91.3014 222.855 94.3889 213.412 97.296C213.071 94.8901 210.104 75.0217 207.859 74.0593C204.751 72.696 172.131 76.4852 170.147 78.6305C168.683 80.1943 171.309 109.967 174.156 114.418C174.577 115.099 176.021 115.119 176.823 115.139C172.131 118.347 167.6 121.595 165.976 122.778C164.713 118.407 158.077 95.2911 155.631 91.5018C154.929 90.3992 154.288 90.4192 151.06 91.5018C149.22 82.322 146.891 73.2469 144.083 64.3156C145.136 62.5846 145.977 60.7336 146.589 58.8021C147.336 55.7429 147.446 52.5626 146.91 49.4594C149.356 50.2814 163.972 54.2911 166.337 53.1283C166.973 52.6749 167.444 52.0277 167.681 51.2838C170.267 45.63 174.698 26.3229 175.038 20.208C175.179 19.425 175.044 18.6176 174.658 17.9225C172.312 15.4765 140.755 6.39435 138.088 7.59729C136.464 8.33909 132.074 22.7542 131.613 24.4584C127.783 37.3097 129.728 34.4828 127.603 35.2246C125.157 36.0868 123.052 41.2393 122.19 43.6251C121.328 46.0109 120.425 49.2188 121.448 51.1034C121.033 51.8698 120.866 52.7463 120.97 53.6118C121.074 54.4772 121.444 55.289 122.029 55.9351C121.392 56.6458 120.976 57.5276 120.834 58.4717C120.691 59.4157 120.828 60.3809 121.227 61.2481C121.809 63.0725 125.438 64.2755 127.242 64.7967C125.817 68.6358 124.632 72.5596 123.693 76.5454C122.094 82.7304 120.816 88.994 119.864 95.3111C119.271 98.3809 119.075 101.514 119.283 104.634L115.995 106.117C115.868 106.175 115.761 106.269 115.686 106.386C115.612 106.504 115.572 106.64 115.574 106.779C115.574 106.779 116.195 131.078 124.195 151.268C133.858 175.707 149.757 183.887 173.956 174.745C174.174 176.663 174.646 178.544 175.359 180.338C175.72 180.98 176.943 181.1 177.765 181.181C184.883 181.414 192.008 181.193 199.097 180.519L205.112 218.612C203.488 223.303 185.063 276.754 185.324 281.726C185.324 282.247 185.524 282.648 186.386 283.049C191.699 285.515 242.042 292.091 243.947 286.598C244.428 285.254 245.591 276.693 245.811 275.069L274.14 271.942L301.146 273.726C301.437 276.43 301.919 279.11 302.589 281.746C302.83 282.347 303.111 282.668 303.812 282.608C306.479 282.347 320.694 279.781 324.623 279.039C339.7 276.192 339.359 275.952 338.918 274.468C337.855 270.959 327.991 243.593 324.142 230.822C329.773 231.422 335.452 231.422 341.083 230.822C341.144 231.039 341.259 231.237 341.416 231.398C341.574 231.559 341.77 231.678 341.986 231.744C345.654 233.087 378.434 231.223 381.121 228.536C383.547 226.391 379.477 196.357 377.652 193.31ZM138.129 8.45939C138.349 8.11856 138.269 7.97821 140.033 8.23885C147.391 9.28139 171.45 17.0403 173.535 18.8648C173.936 23.456 167.981 48.6574 165.636 51.7048C163.931 52.2862 152.624 49.3992 150.88 48.9381C137.607 45.4696 138.129 44.9283 135.101 44.2266C133.537 43.6853 133.377 43.6652 133.417 43.4447C133.422 43.3951 133.445 43.3491 133.482 43.3157C133.519 43.2823 133.568 43.264 133.618 43.2642C135.422 43.2642 140.254 43.1239 141.437 41.7205C141.698 41.4351 141.893 41.0956 142.007 40.7261C142.122 40.3567 142.154 39.9665 142.1 39.5834C142.046 39.2004 141.909 38.8339 141.697 38.5101C141.485 38.1864 141.205 37.9134 140.875 37.7107C138.299 36.6784 135.605 35.9647 132.856 35.5855C132.034 35.4251 131.031 35.1444 130.029 35.0242C131.412 28.7689 135.983 11.7875 138.129 8.45939ZM120.907 103.972V100.865C121.087 97.0554 122.911 87.051 123.453 84.3043C124.335 79.8535 124.535 78.851 127.102 69.1874C127.102 68.9268 128.645 64.6163 128.645 64.6163C128.673 64.5415 128.684 64.4616 128.679 64.382C128.673 64.3024 128.651 64.2249 128.613 64.1547C128.575 64.0845 128.522 64.0232 128.459 63.9749C128.395 63.9266 128.322 63.8923 128.244 63.8745C128.024 63.8745 122.811 62.5914 122.23 60.9273C121.648 59.2633 121.528 57.2584 122.992 56.3762C123.045 56.3372 123.089 56.2859 123.119 56.2267C123.15 56.1674 123.165 56.1019 123.165 56.0354C123.165 55.9689 123.15 55.9033 123.119 55.8441C123.089 55.7848 123.045 55.7336 122.992 55.6946C122.351 55.1685 121.92 54.4304 121.776 53.6139C121.633 52.7975 121.787 51.9566 122.21 51.2437C122.671 50.3014 120.205 50.7625 123.132 44.0061C123.874 42.342 126.38 37.2295 128.084 36.6682C129.593 36.5209 131.116 36.6917 132.555 37.1694C135.068 37.5652 137.538 38.1961 139.933 39.054C140.085 39.1358 140.217 39.2517 140.317 39.3927C140.417 39.5336 140.483 39.6958 140.51 39.8666C140.537 40.0374 140.525 40.2121 140.473 40.3772C140.422 40.5423 140.333 40.6932 140.214 40.8183C139.333 41.3174 138.368 41.6504 137.367 41.8007C131.051 43.0437 132.174 41.6603 131.352 43.8056C128.939 43.6641 126.528 44.0969 124.315 45.0686C123.453 45.2491 123.814 45.8105 124.435 45.7102C127.121 44.8299 129.994 44.6845 132.755 45.2892C134.358 45.582 135.924 46.0457 137.427 46.6726C138.79 47.2263 140 48.0996 140.955 49.2188C141.126 49.6429 141.19 50.1025 141.141 50.557C141.092 51.0115 140.932 51.447 140.675 51.8251C140.194 52.5669 137.868 52.0657 136.986 51.8251C135.783 51.4642 134.52 51.1635 133.337 50.7826C131.673 50.2613 131.853 50.121 131.332 50.1611C129.493 50.4216 127.694 50.9133 125.979 51.6246C125.93 51.6302 125.884 51.6467 125.843 51.6731C125.801 51.6994 125.767 51.7347 125.741 51.7764C125.716 51.8182 125.7 51.8651 125.696 51.9138C125.691 51.9624 125.698 52.0114 125.715 52.0571C125.733 52.1028 125.76 52.1439 125.796 52.1773C125.832 52.2107 125.874 52.2356 125.921 52.2499C125.968 52.2643 126.017 52.2678 126.065 52.2602C126.114 52.2526 126.159 52.2341 126.199 52.206C127.735 51.7731 129.304 51.4713 130.891 51.3038C131.793 51.3038 131.212 51.3038 133.477 52.206C134.5 52.587 135.482 52.8877 136.565 53.2486C137.261 53.4872 137.98 53.6552 138.71 53.7498C139.993 54.9527 140.915 57.7596 139.191 58.2608C138.514 58.3776 137.817 58.294 137.186 58.0202C132.595 56.5166 135.703 55.4339 125.738 57.4789C125.657 57.489 125.582 57.5299 125.53 57.5933C125.478 57.6568 125.452 57.7378 125.458 57.8197C125.458 58.341 125.798 58.0202 131.312 57.8197C131.979 57.7527 132.65 57.7527 133.317 57.8197C135.041 58.7019 137.607 60.2056 139.592 59.6241C142.018 58.8422 141.938 56.1557 140.374 54.1909C139.813 53.5092 139.752 53.7097 140.234 53.6295C140.585 53.5913 140.926 53.4808 141.233 53.3048C141.54 53.1289 141.807 52.8913 142.018 52.607C142.493 51.9521 142.758 51.1688 142.78 50.3601C142.801 49.5515 142.578 48.7552 142.138 48.076L145.506 49.0784C146.173 52.1837 146.118 55.4006 145.346 58.4813C145.131 59.2334 144.849 59.9648 144.504 60.6667C143.04 63.7542 142.499 63.8545 142.68 64.4359C145.466 73.4947 147.761 82.6971 149.556 92.0031C141.998 94.6495 128.144 100.744 120.907 103.972ZM279.553 243.292C288.134 243.653 306.579 244.314 315.04 244.054C314.458 246.58 314.098 248.184 313.997 248.545C309.967 248.545 283.924 244.034 279.553 243.292ZM318.288 242.269C312.915 243.533 243.165 240.806 237.19 238.26C237.812 233.769 243.666 208.527 244.849 203.375C250.111 204.985 255.585 205.796 261.088 205.78C263.093 206.823 266.401 208.627 268.386 209.57C268.166 211.274 267.624 215.304 268.827 216.507C270.03 217.71 297.718 227.874 321.997 230.721C321.017 234.649 319.778 238.506 318.288 242.269ZM244.207 194.012C243.284 193.732 242.43 193.26 241.701 192.628C241.18 192.067 241.36 190.363 241.701 189.561C241.887 189.171 242.218 188.869 242.623 188.719C243.113 188.506 243.635 188.377 244.167 188.338C244.326 188.334 244.481 188.282 244.609 188.188C244.738 188.094 244.835 187.964 244.887 187.813C244.94 187.663 244.945 187.5 244.902 187.346C244.859 187.193 244.771 187.056 244.648 186.955C243.475 185.967 242.659 184.622 242.323 183.125C242.323 182.023 242.744 180.88 244.508 179.877C246.513 180.038 252.527 185.01 255.314 182.143C258.101 179.276 254.813 172.559 257.921 171.998C261.028 171.437 262.592 180.78 263.133 181.802C264.938 185.311 269.79 187.817 272.556 190.704C270.885 196.68 269.547 202.744 268.546 208.868C264.537 206.723 261.569 204.858 261.269 204.858C257.079 204.718 245.831 203.555 242.904 200.568C242.383 200.166 242.027 199.588 241.902 198.942C241.776 198.296 241.89 197.627 242.222 197.059C242.436 196.682 242.723 196.353 243.068 196.091C243.413 195.829 243.807 195.64 244.227 195.535C244.399 195.494 244.551 195.395 244.66 195.255C244.768 195.115 244.826 194.943 244.823 194.766C244.821 194.589 244.759 194.418 244.647 194.281C244.535 194.144 244.38 194.049 244.207 194.012ZM266.542 127.249C262.817 126.893 259.075 126.745 255.334 126.808C254.853 126.808 254.452 127.049 254.312 127.51C253.971 128.793 248.297 170.494 248.016 172.539C246.814 152.491 245.57 131.379 244.648 115.901C251.625 127.028 252.227 128.131 253.329 127.349C257.047 124.292 260.563 120.997 263.855 117.485C264.457 119.711 265.419 123.339 266.542 127.249ZM284.886 120.212C283.523 118.207 282.18 116.202 281.679 115.46L288.154 99.1605L284.886 120.212ZM289.558 97.1957C297.141 98.7594 304.534 101.132 311.611 104.273C311.311 105.215 307.441 117.044 302.81 131.159C300.685 130.898 288.515 129.414 284.766 129.013L289.558 97.1957ZM281.358 117.686L284.525 122.457L283.523 128.873L280.415 128.472C280.877 124.121 281.197 119.991 281.358 117.686ZM336.713 138.837C336.688 141.448 336.433 144.051 335.951 146.616C329.074 144.852 269.088 130.096 262.993 133.564C259.945 135.329 249.921 176.469 248.959 180.178L248.237 179.817C251.405 157.543 255.615 128.332 255.615 128.251C262.452 127.47 328.312 134.928 336.713 138.837ZM301.727 180.759C297.236 180.459 279.413 179.577 275.664 182.063C275.082 182.464 274.842 182.544 272.777 189.962C270.11 187.135 265.639 184.469 264.136 181.321C263.454 179.937 262.351 169.833 257.68 170.615C251.385 171.677 259.424 184.649 250.122 180.639C250.723 178.093 260.587 135.629 263.334 134.066C269.148 130.758 332.563 146.897 340.582 149.162C340.121 154.054 334.227 180.158 333.144 184.93C322.761 182.935 312.271 181.542 301.727 180.759ZM270.852 40.5176C271.975 41.2794 271.935 43.1039 271.734 44.4271C270.331 53.3889 261.349 58.8222 255.114 50.2413C253.69 48.2364 252.588 41.8608 253.55 40.4574C254.191 39.6354 259.364 39.5953 260.407 39.5953C262.331 39.6153 269.85 39.9161 270.772 40.5176H270.852ZM246.974 41.9611C246.974 45.7303 245.711 51.9855 242.363 53.7899C236.969 56.5968 231.496 52.1459 231.356 46.3518C231.15 44.2365 231.252 42.1026 231.657 40.0163L231.857 39.9161C231.536 39.3547 245.631 39.1743 246.894 40.4374C246.936 40.9444 246.936 41.4541 246.894 41.9611H246.974ZM253.951 85.6075C257.419 86.6099 263.013 86.1288 265.7 83.3821C265.756 83.3225 265.787 83.2436 265.787 83.1615C265.787 83.0795 265.756 83.0006 265.7 82.941C265.238 82.3796 265.7 83.4623 260.487 84.2442C255.274 85.0261 252.126 84.2442 246.854 80.8158C244.43 78.5892 242.615 75.7805 241.581 72.6559C239.422 67.3679 238.07 61.7854 237.571 56.0955C239.458 56.4045 241.394 56.0877 243.084 55.1933C244.725 54.234 245.996 52.7512 246.693 50.9831C246.017 53.1017 245.461 55.2571 245.029 57.4388C244.935 57.7181 244.921 58.0181 244.989 58.305C245.056 58.5919 245.202 58.8543 245.41 59.0628C246.796 59.9101 248.429 60.2634 250.041 60.0652C250.089 60.0773 250.138 60.0785 250.186 60.0685C250.234 60.0586 250.279 60.0378 250.318 60.0079C250.356 59.9779 250.388 59.9394 250.409 59.8955C250.431 59.8516 250.442 59.8034 250.442 59.7544C250.442 59.7055 250.431 59.6573 250.409 59.6134C250.388 59.5695 250.356 59.531 250.318 59.5011C250.279 59.4711 250.234 59.4503 250.186 59.4404C250.138 59.4304 250.089 59.4316 250.041 59.4437C248.852 59.3113 247.704 58.9287 246.673 58.321C246.212 58.0002 246.413 58.2007 246.553 57.539C246.693 56.8774 249.3 47.3141 249.44 46.7127C250.061 46.7127 252.427 46.3919 252.427 45.8105C252.427 45.229 250.543 45.0686 249.841 45.1087C249.841 44.8481 249.961 44.6276 250.021 44.4271C250.053 44.3473 250.052 44.2582 250.018 44.1792C249.984 44.1002 249.921 44.038 249.841 44.0061C249.761 43.9741 249.672 43.9752 249.593 44.0091C249.514 44.0429 249.452 44.1067 249.42 44.1865C248.718 45.5498 249.199 45.0486 248.257 45.2892C248.619 43.4354 248.619 41.5292 248.257 39.6755C247.114 37.9112 240.237 38.3122 237.992 38.4525C239.135 31.7361 243.586 28.4281 246.312 23.055C247.076 21.8078 248.094 20.7354 249.3 19.9073C249.901 19.7469 251.084 21.2506 251.806 21.6115C252.527 21.9723 253.209 23.9572 253.811 24.6388C255.702 26.7922 257.881 28.6744 260.286 30.2325C262.291 31.6559 265.419 31.8765 266.782 33.7009C267.358 35.2523 267.637 36.8982 267.604 38.5528C265.018 38.3924 254.232 38.232 252.948 40.0765C251.786 41.5601 252.287 48.3366 253.991 50.943C258.281 57.4388 264.878 57.8398 270.03 51.9855C270.584 51.2945 271.055 50.5408 271.434 49.74C275.283 55.7547 278.31 59.3434 278.451 66.4007C278.611 75.3425 276.085 90.1586 285.768 92.0231L287.433 96.6143C279.413 116.783 279.834 115.52 279.834 115.721C279.834 115.921 279.453 121.736 278.751 128.392C274.902 127.991 271.313 127.65 268.125 127.389C267.885 126.567 264.898 115.941 264.958 115.721C265.258 114.718 263.755 112.754 262.592 111.009C258.231 104.696 253.47 98.6689 248.337 92.9654L253.951 85.6075ZM246.894 93.5067C247.235 94.028 261.67 109.907 263.434 115.741C260.191 119.336 256.686 122.687 252.948 125.765C251.605 124.001 247.976 118.187 244.528 112.754C243.906 102.268 243.485 94.9703 243.385 93.4466C244.508 93.3664 245.771 93.4265 246.813 93.5067H246.894ZM175.299 113.556C173.014 109.546 169.846 83.4823 170.588 79.4725C170.588 79.1116 170.588 78.9913 172.272 78.5302C179.449 76.6657 204.631 74.5205 207.277 75.4226C209.282 79.3322 213.673 104.854 212.63 108.784C210.585 110.428 181.194 114.578 175.219 113.556H175.299ZM176.703 179.516C174.397 174.985 172.693 145.935 173.836 144.832C175.54 143.188 207.538 141.784 210.565 142.967C212.57 147.178 215.417 173.041 214.234 176.549C211.507 178.594 181.434 180.599 176.622 179.516H176.703ZM222.474 145.915C223.918 145.534 233.982 142.967 235.185 142.246C236.047 141.744 237.03 143.368 220.169 97.0955C222.173 95.251 239.696 92.8852 242.463 93.7473C242.463 94.85 245.089 141.644 247.154 179.196C246.172 178.714 244.748 177.973 243.846 178.474C240.077 180.479 239.836 183.807 242.623 187.055C242.103 187.182 241.619 187.43 241.212 187.778C240.805 188.127 240.485 188.565 240.278 189.06C239.956 189.812 239.82 190.631 239.879 191.447C239.938 192.263 240.192 193.053 240.618 193.751C241.086 194.199 241.62 194.571 242.202 194.854C241.603 195.255 241.131 195.818 240.839 196.478C240.576 197.046 240.42 197.658 240.378 198.282L222.474 145.915ZM272.376 270.679L246.192 273.586C246.312 272.623 249.259 249.387 250.202 241.508C255.655 241.989 262.231 242.41 269.268 242.791C270.431 257.246 272.476 267.23 272.296 270.679H272.376ZM273.759 270.518C274.04 265.947 270.271 243.031 270.251 242.831L272.256 242.931C279.072 244.194 296.635 247.302 298.54 247.622C299.181 254.078 300.785 269.115 301.166 272.202C271.273 270.278 274.501 270.438 273.659 270.518H273.759ZM380.139 227.614C378.134 229.218 348.682 231.904 342.607 230.581C340.261 226.03 338.597 196.999 339.74 195.896C341.464 194.232 373.462 192.869 376.45 194.032C378.334 198.222 381.241 224.185 380.058 227.614H380.139Z" fill="white"/>
<path fill-rule="evenodd" clip-rule="evenodd" d="M176.743 212.878C176.582 212.156 176.362 211.114 175.78 210.873C173.775 209.67 160.563 209.43 158.218 209.39C157.696 199.826 156.774 188.779 155.27 185.812C154.288 183.807 89.49 183.607 87.2646 183.587C87.4249 172.8 87.445 156.36 87.2646 145.494C90.0914 145.494 104.206 145.494 106.151 143.89C108.637 141.885 106.973 115.12 105.85 109.807C105.689 109.085 105.449 108.042 104.888 107.802C101.96 106.058 69.1203 105.637 66.7946 107.501C65.5717 108.524 65.1105 121.054 65.0504 122.638C60.4592 122.638 32.07 122.057 21.9252 122.297V105.917C24.5516 105.917 39.9692 106.338 41.9741 104.654C44.4 102.649 43.5981 69.8894 41.2925 68.5662C38.9868 67.243 24.5917 66.822 22.1057 66.7618C22.1057 63.9149 21.8851 56.7374 21.8651 56.5569C31.1477 56.2161 55.6074 56.998 65.692 56.998C65.692 60.1457 65.5115 71.353 66.8347 74.22C67.1555 74.9017 68.3785 75.1022 69.1805 75.2425C75.556 76.3652 103.985 77.0269 106.772 74.6611C109.559 72.2953 107.614 42.3222 105.99 39.0944C105.883 38.8623 105.717 38.662 105.509 38.513C102.482 36.7286 69.6817 36.5081 67.4162 38.2122C66.113 39.3149 65.6719 53.6699 65.6318 55.3941C55.3868 55.3941 31.2881 54.6122 21.7448 54.953C21.7448 51.0836 21.5443 47.1741 21.5443 43.3247C24.3913 43.3247 41.5932 43.064 43.7384 41.1795C45.8837 39.2949 43.7384 8.9208 42.0142 5.63278C41.907 5.39977 41.7324 5.20424 41.513 5.07142C38.4656 3.36726 5.6656 3.88853 3.42013 5.77312C1.71597 7.25674 1.41524 37.2298 3.70081 41.8611C3.85827 42.1197 4.09848 42.3175 4.38247 42.4225C6.66804 43.3848 17.334 43.4049 19.8402 43.4049C19.8402 52.3667 20.2411 59.6445 20.3213 66.8019C18.3164 66.8019 4.64311 66.5012 3.11939 67.7242C1.59568 68.9472 -0.24882 98.9002 1.87636 103.812C2.17709 104.474 3.40008 104.714 4.20203 104.855C9.51547 105.622 14.8731 106.044 20.2411 106.118V135.71C18.3365 135.71 5.28467 135.469 3.8211 136.652C2.35753 137.835 0.432843 167.828 2.55802 172.74C2.85876 173.422 4.08174 173.642 4.88369 173.803C11.3795 175.046 39.6886 176.128 42.4754 173.803C45.2621 171.477 43.8186 141.424 42.2949 138.236C42.1865 137.999 42.0212 137.792 41.8137 137.635C39.6284 136.311 24.4314 135.87 21.7649 135.81V124.222C32.1502 123.961 59.3766 124.543 64.87 124.563C64.87 127.951 64.5492 140.722 65.9927 143.83C66.1237 144.099 66.3535 144.307 66.6343 144.411C69.2206 145.594 82.6734 145.835 85.4201 145.855C85.6807 156.761 85.6606 173.241 85.4201 183.948C58.4744 183.807 30.5262 184.088 24.8925 185.231C24.291 185.351 23.3086 185.551 23.2685 186.394C23.2685 186.394 22.1859 203.716 21.6847 209.67C19.9003 209.67 8.17171 209.67 6.80839 210.873C5.44506 212.076 3.9414 242.109 6.14677 246.961C6.44751 247.623 7.67049 247.843 8.47244 247.984C14.868 249.106 43.2773 249.768 46.0641 247.402C48.8509 245.037 46.8861 215.003 45.2822 211.836C45.3627 211.644 45.3884 211.434 45.3565 211.229C45.3247 211.023 45.2365 210.831 45.1018 210.673C42.7961 209.289 26.336 209.169 23.6094 209.149C24.0905 203.134 25.1331 186.394 25.1331 186.394C31.9898 184.389 146.048 184.629 154.027 186.654C155.25 189.581 156.032 199.626 156.674 209.229C154.669 209.229 139.432 209.109 137.848 210.432C136.264 211.755 135.061 241.849 137.186 246.52C137.327 246.789 137.563 246.997 137.848 247.102C141.397 248.705 174.217 249.427 177.104 246.961C177.6 246.36 177.888 245.615 177.926 244.836C178.868 238.741 178.046 218.893 176.743 212.878ZM67.8372 38.4528C69.6215 36.9692 101.62 38.0318 104.587 39.4753C105.331 42.6396 105.761 45.8699 105.87 49.1188C93.0186 47.8156 75.6563 48.8181 66.7946 49.1188C66.8347 47.9159 67.1555 38.934 67.8372 38.3927V38.4528ZM66.7746 50.2215C81.3702 50.6826 98.6924 49.9208 105.93 50.001C106.151 53.5496 106.933 70.1701 105.629 73.2376C104.146 74.2601 92.4572 74.4405 90.6729 74.4606C86.3624 74.4606 72.1477 74.4606 67.9775 73.2577C66.534 69.7491 66.6744 54.1711 66.7746 50.1614V50.2215ZM3.9414 5.93351C5.72575 4.3697 37.7839 4.67043 40.711 5.93351C41.3689 8.16818 41.7856 10.4669 41.9541 12.7902C29.0029 12.4084 16.0422 13.0789 3.19959 14.7951C3.21964 14.0734 3.35998 6.45478 3.9414 5.93351ZM5.00399 40.7183C3.38003 37.0895 3.15949 20.2083 3.19959 15.4768C4.88369 15.2763 41.2925 13.4719 42.0343 13.4719C42.4753 17.4817 44.0392 36.1873 42.6357 39.6958C39.9492 41.6406 9.77562 42.0215 5.00399 40.7183ZM3.62061 67.8445C5.44506 66.3809 37.423 67.9648 40.3702 69.4484C41.026 72.4401 41.3886 75.4885 41.4529 78.5506C41.6533 78.5506 13.1037 77.4278 2.45778 77.7687C2.51793 76.5858 2.9991 68.3256 3.62061 67.8445ZM41.4128 172.099C39.2074 173.542 9.63528 173.362 3.78101 171.497C2.33749 167.908 2.77856 151.448 2.97905 147.258C3.17954 147.258 30.5864 149.383 42.0543 148.04C42.2548 151.709 42.7961 168.971 41.4128 172.079V172.099ZM40.9316 138.296C41.5843 141.296 41.9535 144.35 42.0343 147.418C42.2348 147.418 13.7453 146.296 3.01915 146.617C3.1085 143.394 3.45038 140.183 4.04164 137.013C4.18198 136.612 4.04164 136.532 5.84604 136.331C13.0235 135.529 38.3653 136.993 40.9316 138.276V138.296ZM3.19959 102.629C1.77612 99.0405 2.21719 82.7007 2.41768 78.4102C2.65827 78.4102 29.9849 80.5354 41.493 79.1921C41.6934 82.8811 42.2548 100.043 40.8514 103.251C38.1448 105.015 8.03137 104.173 3.19959 102.629ZM45.5428 222.221C45.7834 225.95 46.5453 242.53 45.2421 245.678C43.1169 247.162 13.4245 247.462 7.59029 245.678C6.14677 242.19 6.28712 226.491 6.38736 222.301C19.3189 222.802 31.0675 222.221 45.5428 222.221ZM44.1996 211.916C44.9412 215.074 45.3776 218.297 45.5027 221.539C32.7516 220.256 14.7878 221.279 6.40741 221.659C6.40741 220.396 6.78834 211.435 7.44995 210.893C9.25435 209.41 41.2323 210.472 44.1996 211.916ZM67.1555 107.762C69 106.218 100.998 107.381 103.905 108.784C104.668 112.075 105.111 115.432 105.228 118.809C96.5271 118.348 74.8743 116.964 66.133 118.047C66.2333 116.904 66.5741 108.303 67.1555 107.762ZM67.356 142.507C65.8924 138.998 66.0528 122.959 66.1731 118.769C69 118.488 89.4499 119.771 98.9531 119.691C101.379 119.691 103.564 119.591 105.329 119.53C105.549 123.099 106.291 139.399 105.008 142.486C102.381 144.351 72.2279 144.05 67.356 142.507ZM138.189 210.893C139.993 209.41 171.971 210.472 174.958 211.916C175.693 215.082 176.123 218.311 176.242 221.559C163.611 220.276 145.326 221.299 137.166 221.559C137.186 220.497 137.527 211.495 138.189 210.953V210.893ZM176.001 245.678C173.816 247.162 144.123 247.462 138.349 245.678C136.886 242.21 137.026 226.451 137.146 222.281C150.639 222.802 160.764 222.281 176.282 222.281C176.522 225.97 177.284 242.611 176.001 245.738V245.678Z" fill="white"/>
</svg>
